<?xml version="1.0" encoding="utf-8"?>
<!-- Generator: Adobe Illustrator 10.0, SVG Export Plug-In . SVG Version: 3.0.0 Build 76)  -->
<!DOCTYPE svg PUBLIC "-//W3C//DTD SVG 1.0//EN"    "http://www.w3.org/TR/2001/REC-SVG-20010904/DTD/svg10.dtd" [
	<!ENTITY ns_flows "http://ns.adobe.com/Flows/1.0/">
	<!ENTITY ns_extend "http://ns.adobe.com/Extensibility/1.0/">
	<!ENTITY ns_ai "http://ns.adobe.com/AdobeIllustrator/10.0/">
	<!ENTITY ns_graphs "http://ns.adobe.com/Graphs/1.0/">
	<!ENTITY ns_vars "http://ns.adobe.com/Variables/1.0/">
	<!ENTITY ns_imrep "http://ns.adobe.com/ImageReplacement/1.0/">
	<!ENTITY ns_sfw "http://ns.adobe.com/SaveForWeb/1.0/">
	<!ENTITY ns_custom "http://ns.adobe.com/GenericCustomNamespace/1.0/">
	<!ENTITY ns_adobe_xpath "http://ns.adobe.com/XPath/1.0/">
	<!ENTITY ns_svg "http://www.w3.org/2000/svg">
	<!ENTITY ns_xlink "http://www.w3.org/1999/xlink">
]>
<svg 
	 xmlns:x="&ns_extend;" xmlns:i="&ns_ai;" xmlns:graph="&ns_graphs;" i:viewOrigin="0 283.4648" i:rulerOrigin="0 0" i:pageBounds="0 283.4648 283.4648 0"
	 xmlns="&ns_svg;" xmlns:xlink="&ns_xlink;" xmlns:a="http://ns.adobe.com/AdobeSVGViewerExtensions/3.0/"
	 width="283.465" height="283.465" viewBox="0 0 283.465 283.465" overflow="visible" enable-background="new 0 0 283.465 283.465"
	 xml:space="preserve">
	<metadata>
		<variableSets  xmlns="http://ns.adobe.com/Variables/1.0/">
			<variableSet  varSetName="binding1" locked="none">
				<variables></variables>
				<v:sampleDataSets  xmlns="http://ns.adobe.com/GenericCustomNamespace/1.0/" xmlns:v="http://ns.adobe.com/Variables/1.0/">
					</v:sampleDataSets>
			</variableSet>
		</variableSets>
		<sfw  xmlns="&ns_sfw;">
			<slices></slices>
			<sliceSourceBounds  y="-8050.535" x="-8049" width="16383" height="16383" bottomLeftOrigin="true"></sliceSourceBounds>
		</sfw>
	</metadata>
	<g id="bg" i:layer="yes" i:dimmedPercent="50" i:rgbTrio="#FFFF4F004F00">
		<path i:knockout="Off" fill="#BB2222" d="M283.465,283.465H0V0h283.465V283.465z"/>
	</g>
	<g id="star" i:layer="yes" i:dimmedPercent="50" i:rgbTrio="#4F008000FFFF">
		<g>
			<path i:knockout="Off" fill-rule="evenodd" clip-rule="evenodd" d="M47.6,54.046c0,0,19.374,9.936,30.055,2.274
				C88.336,48.658,92.44,22.09,92.44,22.09s8.148,19.622,25.57,18.818c17.427-0.81,26.015-27.23,26.015-27.23
				s-1.962,17.68,18.804,23.702c20.774,6.018,36.902-8.64,36.902-8.64s-10.616,21.716,2.926,32.794
				c13.538,11.075,42.618-0.36,42.618-0.36s-19.248,18.175-10.301,34.369c8.94,16.19,31.22,17.215,31.22,17.215
				s-20.128,10.947-16.806,29.515c3.32,18.567,18.029,23.729,18.029,23.729s-17.648,2.978-23.701,18.802
				c-6.052,15.84-1.224,29.399-1.224,29.399s-16.623-6.792-27.731,5.983c-11.11,12.767-11.508,31.171-11.508,31.171
				s-9.657-10.456-26.31-1.338c-16.643,9.116-21.84,18.887-21.84,18.887s-8.52-21.306-26.519-19.242
				c-17.99,2.064-23.217,15.232-23.217,15.232s-5.656-19.251-20.803-23.478c-15.138-4.217-27.169,0.559-27.169,0.559
				s3.916-19.456-6.976-29.702c-10.882-10.256-23.105-10.883-23.105-10.883s8.391-6.805,5.245-24.91
				c-3.148-18.108-12.35-24.565-12.35-24.565s9.968-6.087,12.137-18.372c2.167-12.278-10.548-21.847-10.548-21.847
				s19.791-16.032,22.931-27.116C47.861,73.5,47.6,54.046,47.6,54.046z"/>
			<path i:knockout="Off" fill-rule="evenodd" clip-rule="evenodd" fill="#FFFFFF" d="M56.575,66.839c0,0,8.913,7.083,24.338-1.839
				c15.424-8.917,17.763-20.741,17.763-20.741s4.346,8.793,22.6,5.332c18.248-3.464,23.501-11.69,23.501-11.69
				s5.575,8.595,18.969,11.647c13.398,3.053,23.31-0.405,23.31-0.405s-2.624,8.284,12.379,21.157
				c14.997,12.88,23.65,8.853,23.65,8.853s-5.396,8.54,2.839,22.134c8.229,13.593,19.659,17.646,19.659,17.646
				s-10.454,5.488-9.362,18.118c1.09,12.622,10.488,28.643,10.488,28.643s-6.485,4.258-12.076,15.746
				c-5.599,11.486-4.852,23.2-4.852,23.2s-13.174,3.115-22.331,14.114c-9.166,11.009-6.888,26.831-6.888,26.831
				s-8.056-4.798-23.444,0.716c-15.395,5.522-21.651,15.954-21.651,15.954s-10.546-17.688-28.108-16.56
				c-17.565,1.115-21.505,11.455-21.505,11.455s0.592-12.994-16.773-18.983c-17.373-5.994-25.537-1.362-25.537-1.362
				s3.194-9.549-7.379-23.827c-10.573-14.279-21.003-16.356-21.003-16.356s5.91-11.341,4.421-22.254
				c-1.484-10.913-9.744-21.104-9.744-21.104s7.847-8.941,10.276-22.631c2.425-13.683-6.348-16.906-6.348-16.906
				s10.969-8.292,16.478-22.095C55.751,77.833,56.575,66.839,56.575,66.839z"/>
			<path i:knockout="Off" fill-rule="evenodd" clip-rule="evenodd" d="M67.976,78.46c0,0,10.372,4.71,21.367-2.806
				c10.995-7.518,14.363-20.776,14.363-20.776s4.803,12.798,19.396,10.71c14.6-2.093,19.193-15.546,19.193-15.546
				s3.404,12.538,15.858,15.162c12.456,2.624,24.732-3.549,24.732-3.549s-8.021,12.656,3.695,20.249
				c11.708,7.599,29.474,3.531,29.474,3.531s-10.021,12.886-3.241,24.688c6.768,11.79,18.226,12.446,18.226,12.446
				s-10.851,11.373-12.586,22.713c-1.744,11.337,13.033,18.047,13.033,18.047s-10.43,2.084-13.629,15.799
				c-3.194,13.719,0.15,20.544,0.15,20.544s-11.483-1.422-21.023,7.889c-9.541,9.322-9.335,23.064-9.335,23.064
				s-11.825-6.512-20.252-0.48c-8.429,6.028-15.417,13.087-15.417,13.087s-7.605-17.482-21.056-13.731
				c-13.454,3.743-20.141,10.941-20.141,10.941s-5.399-12.303-15.426-16.107c-10.027-3.795-21.994-1.643-21.994-1.643
				s8.457-9.433-1.947-19.079c-10.403-9.653-20.26-12.991-20.26-12.991s4.851-10.685,6.676-19.715
				c1.825-9.03-11.688-19.338-11.688-19.338s9.224-9.453,14.732-19.084c5.514-9.625-9.059-19.276-9.059-19.276
				s7.43-3.837,12.679-12.066C69.754,92.916,67.976,78.46,67.976,78.46z"/>
			<path i:knockout="Off" fill-rule="evenodd" clip-rule="evenodd" fill="#34B3D1" d="M95.715,84.99
				c10.335-6.18,11.364-18.34,11.364-18.34s3.688,11.908,16.743,9.878c13.054-2.034,19.535-14.633,19.535-14.633
				s-1.654,9.486,13.43,12.167c15.081,2.677,19.936-3.837,19.936-3.837s-6.339,3.947,3.028,15.021
				c9.377,11.083,24.429,8.822,24.429,8.822s-7.535,9.087-3.306,18.969c4.235,9.881,16.999,12.651,16.999,12.651
				s-9.396,4.828-8.763,17.625c0.628,12.793,8.544,17.908,8.544,17.908s-10.54,3.172-12.732,14.688
				c-2.197,11.513,2.203,17.683,2.203,17.683s-9.455-0.882-16.94,5.571c-7.481,6.463-7.763,19.606-7.763,19.606
				s-5.746-4.885-18.059,0.521c-12.303,5.397-15.585,12.628-15.585,12.628s-11.861-15.624-21.341-13.106
				c-9.487,2.519-13.258,9.146-13.258,9.146s-3.48-6.51-15.423-11.935c-11.94-5.427-15.999-2.335-15.999-2.335
				s2.023-11.97-4.494-20.991c-6.513-9.032-17.65-9.541-17.65-9.541s9.08-9.14,5.588-19.826c-3.493-10.677-9.458-13.39-9.458-13.39
				s10.536,0.992,13.478-11.322c2.941-12.309-6.748-23.535-6.748-23.535s1.458,1.799,7.571-8.318
				c6.107-10.114,3.187-22.05,4.273-21.935C76.402,84.941,86.345,90.6,95.715,84.99z"/>
		</g>
	</g>
	<g id="shadow" i:layer="yes" i:dimmedPercent="50" i:rgbTrio="#800080008000">
		<path i:knockout="Off" d="M209.183,84.998l-33.639-5.056c-4.684-0.705-9.121,2.3-10.211,6.908
			c-0.563,2.384-1.032,4.872-1.42,7.422c-0.616-0.004-1.237,0.046-1.852,0.169l-14.129,2.825c-4.255,0.852-7.309,4.586-7.309,8.926
			c0,0,0,7.605,0,9.801c-0.768-0.81-1.478-1.698-2.296-2.439c-9.614-8.727-22.242-12.352-37.533-10.771
			c-4.387,0.454-7.819,3.987-8.144,8.385c0,0-0.456,6.155-0.668,9.032c-2.297-3.13-4.817-5.891-7.719-8.038
			c-10.211-7.553-23.376-8.661-39.133-3.294c-2.4,0.818-4.351,2.601-5.382,4.917c-1.03,2.317-1.049,4.958-0.049,7.29l42.369,98.821
			c0.989,2.305,2.884,4.1,5.239,4.961c2.355,0.863,4.962,0.714,7.205-0.409c3.724-1.864,7.759-1.864,12.867-1.864
			c4.639,0,8.536-3.487,9.049-8.099c0.356-3.204,0.667-6.353,0.941-9.466c2.416,3.026,5.016,5.743,7.983,7.86
			c10.896,7.771,24.795,8.986,41.312,3.608c1.453-0.472,2.715-1.292,3.727-2.341c6.373,3.081,20.604,9.08,30.778,1.432
			c11.441-8.605,7.992-27.494,6.858-33.699c-0.567-3.104-2.701-5.693-5.641-6.842c-5.051-1.978-18.892-7.387-29.438-2.985v-19.283
			c5.256,8.569,12.679,14.958,22.656,17.319c2.541,0.6,5.217,0.08,7.351-1.426c2.132-1.508,3.516-3.856,3.796-6.453
			c1.198-11.024,3.123-22.219,4.983-33.042c1.908-11.103,3.882-22.583,5.143-34.182C217.406,90.13,214.012,85.724,209.183,84.998z"
			/>
	</g>
	<g id="text" i:layer="yes" i:dimmedPercent="50" i:rgbTrio="#FFFF4F004F00">
		<path i:knockout="Off" fill="#FFBB11" d="M211.417,78.176l-33.631-5.058c-0.937-0.142-1.826,0.459-2.044,1.38
			c-4.098,17.296-3.771,43.594,6.636,60.458c4.657,7.548,10.79,12.271,18.226,14.029c0.507,0.121,1.042,0.016,1.468-0.285
			c0.428-0.302,0.704-0.771,0.76-1.291c1.222-11.241,3.165-22.542,5.044-33.47c1.891-11.003,3.848-22.38,5.082-33.767
			C213.063,79.203,212.383,78.321,211.417,78.176z M163.488,87.172l-14.116,2.823c-0.85,0.17-1.464,0.917-1.464,1.785
			c0,0,0,20.203,0,40.275c-2.99-12.162-7.779-21.442-14.478-27.522c-8.016-7.274-18.745-10.273-31.888-8.913
			c-0.877,0.091-1.563,0.798-1.628,1.677c0,0-3.25,43.887-3.25,43.891c-2.379-18.588-7.895-31.041-16.735-37.579
			c-8.173-6.044-19.092-6.802-32.45-2.25c-0.48,0.164-0.871,0.52-1.077,0.983c-0.206,0.463-0.209,0.991-0.009,1.458l42.369,98.81
			c0.198,0.458,0.577,0.817,1.047,0.99c0.47,0.173,0.992,0.145,1.439-0.08c5.264-2.628,10.543-2.628,16.13-2.628
			c0.928,0,1.708-0.698,1.81-1.62c1.535-13.802,2.209-26.687,2.532-39.679c3.374,15.94,9.292,26.824,17.862,32.941
			c8.908,6.357,20.626,7.242,34.826,2.629c0.749-0.244,1.258-0.942,1.258-1.732V88.958c0-0.546-0.245-1.063-0.666-1.408
			C164.579,87.203,164.023,87.064,163.488,87.172z M201.912,167.57c-13.305-5.205-22.146-5.571-27.025-1.123
			c-4.682,4.269-5.196,12.453-1.572,25.018c0.14,0.49,0.48,0.897,0.938,1.126c11.577,5.766,19.667,6.718,24.729,2.912
			c5.276-3.971,6.604-12.659,4.06-26.565C202.927,168.316,202.5,167.799,201.912,167.57z"/>
	</g>
</svg>
