<?xml version="1.0" encoding="utf-8"?>
<!-- Generator: Adobe Illustrator 10.0, SVG Export Plug-In . SVG Version: 3.0.0 Build 76)  -->
<!DOCTYPE svg PUBLIC "-//W3C//DTD SVG 1.0//EN"    "http://www.w3.org/TR/2001/REC-SVG-20010904/DTD/svg10.dtd" [
	<!ENTITY ns_flows "http://ns.adobe.com/Flows/1.0/">
	<!ENTITY ns_extend "http://ns.adobe.com/Extensibility/1.0/">
	<!ENTITY ns_ai "http://ns.adobe.com/AdobeIllustrator/10.0/">
	<!ENTITY ns_graphs "http://ns.adobe.com/Graphs/1.0/">
	<!ENTITY ns_vars "http://ns.adobe.com/Variables/1.0/">
	<!ENTITY ns_imrep "http://ns.adobe.com/ImageReplacement/1.0/">
	<!ENTITY ns_sfw "http://ns.adobe.com/SaveForWeb/1.0/">
	<!ENTITY ns_custom "http://ns.adobe.com/GenericCustomNamespace/1.0/">
	<!ENTITY ns_adobe_xpath "http://ns.adobe.com/XPath/1.0/">
	<!ENTITY ns_svg "http://www.w3.org/2000/svg">
	<!ENTITY ns_xlink "http://www.w3.org/1999/xlink">
]>
<svg 
	 xmlns:x="&ns_extend;" xmlns:i="&ns_ai;" xmlns:graph="&ns_graphs;" i:viewOrigin="0 283.4648" i:rulerOrigin="0 0" i:pageBounds="0 283.4648 283.4648 0"
	 xmlns="&ns_svg;" xmlns:xlink="&ns_xlink;" xmlns:a="http://ns.adobe.com/AdobeSVGViewerExtensions/3.0/"
	 width="283.465" height="283.465" viewBox="0 0 283.465 283.465" overflow="visible" enable-background="new 0 0 283.465 283.465"
	 xml:space="preserve">
	<metadata>
		<variableSets  xmlns="http://ns.adobe.com/Variables/1.0/">
			<variableSet  varSetName="binding1" locked="none">
				<variables></variables>
				<v:sampleDataSets  xmlns="http://ns.adobe.com/GenericCustomNamespace/1.0/" xmlns:v="http://ns.adobe.com/Variables/1.0/">
					</v:sampleDataSets>
			</variableSet>
		</variableSets>
		<sfw  xmlns="&ns_sfw;">
			<slices></slices>
			<sliceSourceBounds  x="0" y="0" width="283.465" height="283.465" bottomLeftOrigin="true"></sliceSourceBounds>
		</sfw>
	</metadata>
	<g id="bg" i:knockout="Off" i:layer="yes" i:dimmedPercent="50" i:rgbTrio="#4F008000FFFF">
		<path i:knockout="Off" fill="#BB2222" d="M283.465,283.465H0V0h283.465V283.465z"/>
	</g>
	<g id="star" i:knockout="Off" i:layer="yes" i:dimmedPercent="50" i:rgbTrio="#4F00FFFF4F00">
		<g i:knockout="Off">
			<path i:knockout="Off" d="M47.6,54.046c0,0,19.374,9.936,30.055,2.274C88.336,48.658,92.44,22.09,92.44,22.09
				s8.148,19.622,25.57,18.818c17.427-0.81,26.016-27.23,26.016-27.23s-1.962,17.68,18.804,23.702
				c20.773,6.018,36.902-8.64,36.902-8.64s-10.616,21.716,2.926,32.794c13.538,11.075,42.618-0.36,42.618-0.36
				s-19.248,18.175-10.302,34.369c8.94,16.19,31.221,17.215,31.221,17.215s-20.128,10.947-16.807,29.515
				c3.32,18.567,18.029,23.729,18.029,23.729s-17.648,2.979-23.701,18.802c-6.052,15.841-1.224,29.399-1.224,29.399
				s-16.623-6.792-27.731,5.983c-11.109,12.767-11.508,31.171-11.508,31.171s-9.657-10.456-26.31-1.338
				c-16.644,9.115-21.841,18.887-21.841,18.887s-8.52-21.307-26.519-19.242c-17.99,2.064-23.217,15.232-23.217,15.232
				s-5.656-19.251-20.803-23.479c-15.138-4.217-27.169,0.56-27.169,0.56s3.916-19.456-6.976-29.702
				c-10.882-10.256-23.105-10.884-23.105-10.884s8.391-6.805,5.245-24.909c-3.148-18.108-12.35-24.565-12.35-24.565
				s9.968-6.087,12.137-18.372c2.167-12.278-10.548-21.847-10.548-21.847s19.791-16.032,22.931-27.116
				C47.861,73.5,47.6,54.046,47.6,54.046z"/>
			<path i:knockout="Off" fill="#FFFFFF" d="M56.575,66.839c0,0,8.913,7.083,24.338-1.839c15.424-8.917,17.763-20.741,17.763-20.741
				s4.346,8.793,22.6,5.332c18.248-3.464,23.501-11.69,23.501-11.69s5.574,8.595,18.969,11.647
				c13.397,3.053,23.31-0.405,23.31-0.405s-2.624,8.284,12.379,21.157c14.997,12.88,23.65,8.853,23.65,8.853
				s-5.396,8.54,2.839,22.134c8.229,13.593,19.659,17.646,19.659,17.646s-10.454,5.488-9.362,18.118
				c1.09,12.622,10.488,28.643,10.488,28.643s-6.485,4.258-12.076,15.746c-5.599,11.485-4.852,23.199-4.852,23.199
				s-13.174,3.115-22.331,14.114c-9.166,11.009-6.889,26.831-6.889,26.831s-8.056-4.798-23.443,0.716
				c-15.396,5.522-21.651,15.954-21.651,15.954s-10.546-17.688-28.108-16.56c-17.565,1.115-21.505,11.455-21.505,11.455
				s0.592-12.994-16.773-18.983c-17.373-5.994-25.537-1.362-25.537-1.362s3.194-9.549-7.379-23.826
				c-10.573-14.279-21.003-16.356-21.003-16.356s5.91-11.341,4.421-22.254c-1.484-10.913-9.744-21.104-9.744-21.104
				s7.847-8.94,10.276-22.631c2.425-13.683-6.348-16.906-6.348-16.906s10.969-8.292,16.478-22.095
				C55.751,77.833,56.575,66.839,56.575,66.839z"/>
			<path i:knockout="Off" d="M67.976,78.46c0,0,10.372,4.71,21.367-2.806c10.995-7.518,14.363-20.776,14.363-20.776
				s4.803,12.798,19.396,10.71c14.6-2.093,19.193-15.546,19.193-15.546s3.404,12.538,15.858,15.162
				c12.456,2.624,24.731-3.549,24.731-3.549s-8.021,12.656,3.695,20.249c5.511,3.577,12.364,4.569,18.075,4.617
				c6.421,0.054,7.123,4.413,6.048,11.515c-0.571,3.771-0.241,7.994,2.11,12.087c6.768,11.79,18.226,12.446,18.226,12.446
				s-10.851,11.373-12.586,22.713c-1.744,11.337,13.033,18.047,13.033,18.047s-10.431,2.084-13.629,15.799
				c-3.194,13.719,0.149,20.544,0.149,20.544s-11.482-1.422-21.022,7.889c-9.541,9.322-9.335,23.064-9.335,23.064
				s-11.825-6.512-20.252-0.479c-8.43,6.027-15.417,13.087-15.417,13.087s-7.605-17.482-21.057-13.731
				c-13.454,3.743-20.141,10.941-20.141,10.941s-5.399-12.304-15.426-16.107c-1.983-0.75-4.042-1.268-6.069-1.615
				c-5.922-0.952-8.836-6.802-12.256-14.6c-0.717-1.635-1.896-3.314-3.7-4.986c-10.403-9.653-22.176-12.512-22.176-12.512
				s4.851-10.685,6.676-19.715c0.456-2.258,0.976-5.663-0.034-7.899c-3.03-6.709-2.131-15.502-2.131-15.502
				s-0.299-5.39,5.209-15.021c5.514-9.625-9.059-19.276-9.059-19.276s7.43-3.837,12.679-12.066
				C69.754,92.916,67.976,78.46,67.976,78.46z"/>
			<path i:knockout="Off" fill="#34B3D1" d="M95.715,84.99c10.335-6.18,11.364-18.34,11.364-18.34s3.688,11.908,16.743,9.878
				c13.054-2.034,19.536-14.633,19.536-14.633s-1.654,9.486,13.43,12.167c15.081,2.677,19.936-3.837,19.936-3.837
				s-6.339,3.947,3.028,15.021c9.377,11.083,24.429,8.822,24.429,8.822s-7.535,9.087-3.306,18.969
				c4.235,9.881,16.999,12.651,16.999,12.651s-9.396,4.828-8.763,17.625c0.628,12.793,8.544,17.907,8.544,17.907
				s-10.54,3.172-12.732,14.688c-2.197,11.513,2.203,17.683,2.203,17.683s-9.455-0.882-16.94,5.571
				c-7.48,6.463-7.763,19.606-7.763,19.606s-5.746-4.886-18.059,0.521c-12.304,5.397-15.585,12.628-15.585,12.628
				s-11.861-15.624-21.341-13.105c-9.487,2.519-13.258,9.146-13.258,9.146s-3.48-6.51-15.423-11.935
				c-11.94-5.428-15.999-2.335-15.999-2.335s2.023-11.971-4.494-20.991c-6.513-9.032-17.65-9.541-17.65-9.541
				s9.08-9.141,5.588-19.826c-3.493-10.677-9.458-13.39-9.458-13.39s10.536,0.991,13.478-11.322
				c2.941-12.309-6.748-23.535-6.748-23.535s1.458,1.799,7.571-8.318c6.107-10.114,3.187-22.05,4.273-21.935
				C76.402,84.941,86.345,90.6,95.715,84.99z"/>
		</g>
	</g>
	<g id="shadow" i:knockout="Off" i:layer="yes" i:dimmedPercent="50" i:rgbTrio="#4F004F00FFFF">
		<path i:knockout="Off" d="M209.183,84.998l-33.639-5.056c-4.684-0.705-9.121,2.3-10.211,6.908
			c-0.563,2.384-1.032,4.872-1.42,7.422c-0.616-0.004-1.237,0.046-1.853,0.169l-14.129,2.825c-4.255,0.852-7.309,4.586-7.309,8.926
			c0,0,0,7.605,0,9.801c-0.768-0.81-1.478-1.698-2.296-2.439c-9.614-8.727-22.242-12.352-37.533-10.771
			c-4.387,0.454-7.819,3.987-8.144,8.385c0,0-0.456,6.155-0.668,9.032c-2.297-3.13-4.817-5.891-7.719-8.038
			c-10.211-7.553-23.376-8.661-39.133-3.294c-2.4,0.818-4.351,2.601-5.382,4.917c-1.03,2.317-1.049,4.958-0.049,7.29l42.369,98.821
			c0.989,2.305,2.884,4.1,5.239,4.961c2.355,0.862,4.962,0.714,7.205-0.409c3.724-1.864,7.759-1.864,12.867-1.864
			c4.639,0,8.536-3.487,9.049-8.099c0.356-3.204,0.667-6.354,0.941-9.467c2.416,3.026,5.016,5.743,7.983,7.86
			c10.896,7.771,24.795,8.986,41.312,3.608c1.453-0.473,2.715-1.292,3.727-2.341c6.373,3.08,20.604,9.079,30.778,1.432
			c11.441-8.605,7.992-27.494,6.858-33.699c-0.567-3.104-2.701-5.693-5.642-6.842c-5.051-1.979-18.892-7.387-29.438-2.985v-19.283
			c5.256,8.569,12.679,14.958,22.655,17.319c2.541,0.601,5.218,0.08,7.352-1.426c2.132-1.508,3.516-3.856,3.796-6.453
			c1.198-11.024,3.123-22.219,4.983-33.042c1.907-11.103,3.882-22.583,5.143-34.182C217.406,90.13,214.012,85.724,209.183,84.998z"
			/>
	</g>
	<g id="text" i:knockout="Off" i:layer="yes" i:dimmedPercent="50" i:rgbTrio="#FFFFFFFF4F00">
		<path i:knockout="Off" fill="#FFBB11" d="M211.417,78.176l-33.631-5.058c-0.938-0.142-1.826,0.459-2.044,1.38
			c-4.099,17.296-3.771,43.594,6.636,60.458c4.657,7.548,10.79,12.271,18.226,14.029c0.508,0.121,1.043,0.016,1.469-0.285
			c0.428-0.302,0.704-0.771,0.76-1.291c1.222-11.241,3.165-22.542,5.044-33.47c1.891-11.003,3.848-22.38,5.082-33.767
			C213.063,79.203,212.383,78.321,211.417,78.176z M163.488,87.172l-14.116,2.823c-0.85,0.17-1.464,0.917-1.464,1.785
			c0,0,0,20.203,0,40.275c-2.99-12.162-7.779-21.442-14.478-27.522c-8.016-7.274-18.745-10.273-31.888-8.913
			c-0.877,0.091-1.563,0.798-1.628,1.677c0,0-3.25,43.887-3.25,43.891c-2.379-18.588-7.895-31.041-16.735-37.579
			c-8.173-6.044-19.092-6.802-32.45-2.25c-0.48,0.164-0.871,0.52-1.077,0.983c-0.206,0.463-0.209,0.991-0.009,1.458l42.369,98.811
			c0.198,0.458,0.577,0.816,1.047,0.989c0.47,0.174,0.992,0.146,1.439-0.079c5.264-2.629,10.543-2.629,16.13-2.629
			c0.928,0,1.708-0.697,1.81-1.619c1.535-13.803,2.209-26.688,2.532-39.68c3.374,15.94,9.292,26.824,17.862,32.941
			c8.908,6.356,20.626,7.242,34.826,2.629c0.749-0.244,1.258-0.942,1.258-1.732V88.958c0-0.546-0.245-1.063-0.666-1.408
			C164.579,87.203,164.023,87.064,163.488,87.172z M201.912,167.57c-13.305-5.205-22.146-5.571-27.025-1.123
			c-4.682,4.269-5.195,12.453-1.571,25.018c0.14,0.49,0.479,0.897,0.938,1.126c11.577,5.767,19.667,6.718,24.729,2.912
			c5.275-3.971,6.604-12.659,4.06-26.564C202.927,168.316,202.5,167.799,201.912,167.57z"/>
	</g>
</svg>
