<?xml version="1.0" encoding="utf-8"?>
<!-- Generator: Adobe Illustrator 10.0, SVG Export Plug-In . SVG Version: 3.0.0 Build 76)  -->
<!DOCTYPE svg PUBLIC "-//W3C//DTD SVG 1.0//EN"    "http://www.w3.org/TR/2001/REC-SVG-20010904/DTD/svg10.dtd" [
	<!ENTITY ns_flows "http://ns.adobe.com/Flows/1.0/">
	<!ENTITY ns_extend "http://ns.adobe.com/Extensibility/1.0/">
	<!ENTITY ns_ai "http://ns.adobe.com/AdobeIllustrator/10.0/">
	<!ENTITY ns_graphs "http://ns.adobe.com/Graphs/1.0/">
	<!ENTITY ns_vars "http://ns.adobe.com/Variables/1.0/">
	<!ENTITY ns_imrep "http://ns.adobe.com/ImageReplacement/1.0/">
	<!ENTITY ns_sfw "http://ns.adobe.com/SaveForWeb/1.0/">
	<!ENTITY ns_custom "http://ns.adobe.com/GenericCustomNamespace/1.0/">
	<!ENTITY ns_adobe_xpath "http://ns.adobe.com/XPath/1.0/">
	<!ENTITY ns_svg "http://www.w3.org/2000/svg">
	<!ENTITY ns_xlink "http://www.w3.org/1999/xlink">
]>
<svg 
	 xmlns:x="&ns_extend;" xmlns:i="&ns_ai;" xmlns:graph="&ns_graphs;" i:viewOrigin="0 283.4648" i:rulerOrigin="0 0" i:pageBounds="0 283.4648 283.4648 0"
	 xmlns="&ns_svg;" xmlns:xlink="&ns_xlink;" xmlns:a="http://ns.adobe.com/AdobeSVGViewerExtensions/3.0/"
	 width="283.465" height="283.465" viewBox="0 0 283.465 283.465" overflow="visible" enable-background="new 0 0 283.465 283.465"
	 xml:space="preserve">
	<metadata>
		<variableSets  xmlns="http://ns.adobe.com/Variables/1.0/">
			<variableSet  varSetName="binding1" locked="none">
				<variables></variables>
				<v:sampleDataSets  xmlns="http://ns.adobe.com/GenericCustomNamespace/1.0/" xmlns:v="http://ns.adobe.com/Variables/1.0/">
					</v:sampleDataSets>
			</variableSet>
		</variableSets>
		<sfw  xmlns="&ns_sfw;">
			<slices></slices>
			<sliceSourceBounds  y="-8050.535" x="-8049" width="16383" height="16383" bottomLeftOrigin="true"></sliceSourceBounds>
		</sfw>
	</metadata>
	<g id="bg" i:layer="yes" i:dimmedPercent="50" i:rgbTrio="#FFFF4F004F00">
		<path i:knockout="Off" fill="none" d="M283.465,283.465H0V0h283.465V283.465z"/>
	</g>
	<g id="splashes" i:layer="yes" i:dimmedPercent="50" i:rgbTrio="#4F004F00FFFF">
		<path i:knockout="Off" fill-rule="evenodd" clip-rule="evenodd" d="M56.069,71.555l0.846,5.563l-3.749,3.689l5.08,0.786
			l2.479,3.991l2.359-3.991l4.958-0.544l-3.931-3.507l0.907-4.958l-4.354,3.145L56.069,71.555z"/>
		<path i:knockout="Off" fill-rule="evenodd" clip-rule="evenodd" d="M212.302,200.286l-3.466,1.309l-0.907,3.342l-2.09-2.66
			l-3.089-0.135l1.527-2.641l-1.288-3.021l3.281,1.122l2.553-2.119l-0.399,3.514L212.302,200.286z"/>
		<path i:knockout="Off" fill-rule="evenodd" clip-rule="evenodd" d="M175.247,222.075l0.626,2.718l-1.716,1.962l2.537,0.2
			l1.374,1.88l1.019-2.06l2.429-0.453l-2.071-1.588l0.264-2.483l-2.035,1.716L175.247,222.075z"/>
		<path i:knockout="Off" fill-rule="evenodd" clip-rule="evenodd" d="M67.938,189.703l-2.436,0.876l-1.999-1.364l0.097,2.361
			l-1.581,1.475l2.011,0.71l0.687,2.189l1.233-2.085l2.319-0.031l-1.807-1.686L67.938,189.703z"/>
		<path i:knockout="Off" fill-rule="evenodd" clip-rule="evenodd" d="M196.272,70.943l-2.437,0.877l-1.999-1.364l0.099,2.361
			l-1.582,1.475l2.01,0.709l0.687,2.189l1.234-2.084l2.318-0.032l-1.806-1.686L196.272,70.943z"/>
		<path i:knockout="Off" fill-rule="evenodd" clip-rule="evenodd" d="M62.942,105.507L47.417,86.655l-4.159,4.99L62.942,105.507z"/>
		<path i:knockout="Off" fill-rule="evenodd" clip-rule="evenodd" d="M53.563,103.987L33.28,93.482l-3.235,5.501L53.563,103.987z"/>
		<path i:knockout="Off" fill-rule="evenodd" clip-rule="evenodd" d="M49.437,174l-14.622,6.302l4.197,5.688L49.437,174z"/>
		<path i:knockout="Off" fill-rule="evenodd" clip-rule="evenodd" d="M55.454,171.685l-8.921,14.285l6.866,5.11L55.454,171.685z"/>
		<path i:knockout="Off" fill-rule="evenodd" clip-rule="evenodd" d="M251.235,101.47l1.94,7.485l-24.674,2.772L251.235,101.47z"/>
		<path i:knockout="Off" fill-rule="evenodd" clip-rule="evenodd" d="M234.45,93.833l4.99,5.822l-17.546,9.778L234.45,93.833z"/>
		<path i:knockout="Off" fill-rule="evenodd" clip-rule="evenodd" d="M219.656,187.789l4.478,13.432l5.971-3.357L219.656,187.789z"
			/>
		<path i:knockout="Off" fill-rule="evenodd" clip-rule="evenodd" d="M224.134,184.057l17.536,6.344l-3.358,3.73L224.134,184.057z"
			/>
	</g>
	<g id="star" i:layer="yes" i:dimmedPercent="50" i:rgbTrio="#4F008000FFFF">
		<g>
			<path i:knockout="Off" fill-rule="evenodd" clip-rule="evenodd" d="M75.915,78.81c0,0,13.504,6.925,20.949,1.585
				c7.445-5.341,10.306-23.86,10.306-23.86s5.68,13.677,17.823,13.117c12.147-0.564,18.134-18.98,18.134-18.98
				s-1.369,12.324,13.106,16.521c14.48,4.194,25.723-6.022,25.723-6.022s-7.4,15.137,2.038,22.859
				c9.438,7.72,29.708-0.251,29.708-0.251s-13.418,12.668-7.182,23.956c6.232,11.286,21.763,12,21.763,12s-14.03,7.63-11.714,20.573
				c2.313,12.941,12.566,16.539,12.566,16.539s-12.302,2.075-16.521,13.105c-4.219,11.04-0.853,20.493-0.853,20.493
				s-11.588-4.734-19.33,4.17c-7.745,8.898-8.021,21.728-8.021,21.728s-6.731-7.288-18.34-0.933
				c-11.601,6.354-15.223,13.165-15.223,13.165s-5.938-14.851-18.484-13.413c-12.54,1.439-16.184,10.617-16.184,10.617
				s-3.943-13.418-14.5-16.364c-10.552-2.939-18.938,0.39-18.938,0.39s2.729-13.562-4.863-20.704
				c-7.585-7.148-16.106-7.585-16.106-7.585s5.849-4.743,3.656-17.364c-2.195-12.622-8.609-17.122-8.609-17.122
				s6.948-4.243,8.46-12.806c1.51-8.559-7.353-15.229-7.353-15.229s13.795-11.174,15.984-18.9
				C76.096,92.37,75.915,78.81,75.915,78.81z"/>
			<path i:knockout="Off" fill-rule="evenodd" clip-rule="evenodd" fill="#FFFFFF" d="M82.17,87.727c0,0,6.213,4.938,16.964-1.282
				c10.751-6.215,12.381-14.458,12.381-14.458s3.029,6.129,15.753,3.717c12.719-2.415,16.381-8.148,16.381-8.148
				s3.886,5.991,13.223,8.119c9.339,2.127,16.247-0.283,16.247-0.283s-1.829,5.774,8.628,14.748
				c10.454,8.978,16.485,6.171,16.485,6.171s-3.761,5.953,1.979,15.428c5.736,9.476,13.703,12.301,13.703,12.301
				s-7.287,3.825-6.526,12.628c0.76,8.797,7.312,19.964,7.312,19.964s-4.521,2.968-8.417,10.976
				c-3.903,8.007-3.383,16.172-3.383,16.172s-9.183,2.171-15.565,9.838c-6.389,7.674-4.801,18.703-4.801,18.703
				s-5.615-3.345-16.342,0.498c-10.73,3.85-15.093,11.12-15.093,11.12s-7.35-12.328-19.591-11.542
				c-12.244,0.777-14.99,7.985-14.99,7.985s0.413-9.058-11.692-13.232c-12.11-4.178-17.8-0.95-17.8-0.95s2.227-6.656-5.144-16.608
				c-7.37-9.952-14.64-11.401-14.64-11.401s4.119-7.905,3.082-15.512c-1.035-7.606-6.792-14.711-6.792-14.711
				s5.47-6.232,7.163-15.773c1.69-9.538-4.424-11.784-4.424-11.784s7.646-5.78,11.485-15.401
				C81.597,95.391,82.17,87.727,82.17,87.727z"/>
			<path i:knockout="Off" fill-rule="evenodd" clip-rule="evenodd" d="M90.118,95.827c0,0,7.23,3.283,14.894-1.956
				c7.663-5.24,10.011-14.482,10.011-14.482s3.348,8.921,13.52,7.465c10.177-1.459,13.378-10.836,13.378-10.836
				s2.373,8.739,11.054,10.568c8.683,1.83,17.24-2.474,17.24-2.474s-5.592,8.822,2.575,14.114
				c8.161,5.297,20.544,2.461,20.544,2.461s-6.984,8.982-2.259,17.208c4.718,8.218,12.704,8.676,12.704,8.676
				s-7.563,7.927-8.773,15.831c-1.216,7.902,9.085,12.579,9.085,12.579s-7.271,1.453-9.5,11.013
				c-2.226,9.563,0.104,14.319,0.104,14.319s-8.004-0.991-14.653,5.499c-6.65,6.499-6.508,16.077-6.508,16.077
				s-8.242-4.539-14.115-0.335c-5.876,4.202-10.747,9.122-10.747,9.122s-5.302-12.187-14.677-9.571
				c-9.378,2.609-14.039,7.627-14.039,7.627s-3.764-8.576-10.753-11.228c-6.989-2.646-15.331-1.145-15.331-1.145
				s5.895-6.575-1.357-13.3c-7.251-6.729-14.122-9.055-14.122-9.055s3.381-7.448,4.654-13.742
				c1.272-6.294-8.147-13.479-8.147-13.479s6.429-6.588,10.269-13.301c3.843-6.709-6.314-13.437-6.314-13.437
				s5.179-2.674,8.838-8.411C91.357,105.903,90.118,95.827,90.118,95.827z"/>
			<path i:knockout="Off" fill-rule="evenodd" clip-rule="evenodd" fill="#34B3D1" d="M109.453,100.379
				c7.204-4.307,7.921-12.784,7.921-12.784s2.57,8.301,11.67,6.885c9.099-1.418,13.617-10.2,13.617-10.2s-1.153,6.613,9.361,8.481
				c10.512,1.866,13.896-2.675,13.896-2.675s-4.419,2.751,2.11,10.47c6.536,7.726,17.028,6.149,17.028,6.149
				s-5.253,6.334-2.305,13.222c2.952,6.887,11.849,8.818,11.849,8.818s-6.549,3.365-6.107,12.284
				c0.438,8.917,5.955,12.483,5.955,12.483s-7.347,2.21-8.875,10.238c-1.531,8.024,1.536,12.325,1.536,12.325
				s-6.591-0.614-11.809,3.883c-5.215,4.506-5.411,13.666-5.411,13.666s-4.005-3.404-12.587,0.364
				c-8.576,3.763-10.864,8.802-10.864,8.802s-8.267-10.891-14.875-9.135c-6.612,1.755-9.241,6.375-9.241,6.375
				s-2.426-4.538-10.75-8.319c-8.323-3.782-11.152-1.627-11.152-1.627s1.411-8.345-3.132-14.632
				c-4.54-6.297-12.303-6.651-12.303-6.651s6.329-6.37,3.895-13.819c-2.434-7.441-6.592-9.333-6.592-9.333s7.344,0.692,9.394-7.891
				c2.05-8.58-4.703-16.405-4.703-16.405s1.016,1.254,5.278-5.798c4.257-7.05,2.221-15.37,2.978-15.29
				C95.991,100.345,102.921,104.289,109.453,100.379z"/>
		</g>
	</g>
	<g id="shadow" i:layer="yes" i:dimmedPercent="50" i:rgbTrio="#800080008000">
		<path i:knockout="Off" d="M181.066,112.297c-2.37-10.039-15.125-18.688-38.279-15.381c-1.708,0.244-3.242,1.172-4.25,2.572
			c-1.008,1.399-1.404,3.149-1.095,4.846c0.139,0.765,0.293,1.529,0.45,2.293c-5.854-1.14-14.054-1.379-25.206-0.845
			c0,0-0.42,0.02-0.684,0.031c-0.335-0.006-0.669-0.005-1.007,0.043c-3.717,0.532-5.577,3.55-5.577,6.33
			c0,0.138,0.011,0.274,0.02,0.411c-0.397-0.246-0.79-0.503-1.199-0.722c-6.983-3.725-14.689-2.901-21.142,2.261
			c-0.183,0.146-0.357,0.302-0.523,0.468c-0.325,0.325-0.631,0.671-0.926,1.027c-0.156-0.159-0.32-0.311-0.494-0.454
			c-1.47-1.206-3.402-1.689-5.266-1.316l-4.972,0.995c-2.126,0.425-3.787,1.904-4.579,3.809c-2.855-1.44-6.688-2.432-11.712-1.913
			c-2.073,0.214-3.777,1.458-4.771,3.165c-3.192-1.94-8.213-3.355-15.496-0.873c-1.673,0.57-3.032,1.812-3.751,3.427
			c-0.719,1.614-0.731,3.455-0.035,5.08l14.9,34.757c0.688,1.607,2.009,2.857,3.651,3.459c1.642,0.601,3.458,0.497,5.021-0.284
			c0.614-0.308,1.585-0.324,3.12-0.324c2.394,0,4.491-1.341,5.571-3.336c3.337,2.006,8.61,3.526,16.257,1.041
			c2.614-0.851,4.384-3.286,4.384-6.035v-3.771c0.386,0.529,0.782,1.042,1.197,1.521c5.656,6.521,13.321,7.568,20.222,2.93
			c3.449-1.305,6.331-3.259,8.563-5.733c3.448,2.005,9.079,3.152,17.325-1.268c1.631-0.874,2.8-2.417,3.199-4.224
			c0.101-0.453,0.149-0.913,0.149-1.369c0-0.206-0.078-0.401-0.098-0.606c0.608,0.389,1.24,0.729,1.905,1.011
			c2.941,1.242,7.767,1.914,14.051-1.947c0.539-0.331,1.016-0.741,1.427-1.205c1.063,0.22,2.173,0.179,3.216-0.168
			C177.517,134.369,183.175,121.231,181.066,112.297z M100.646,140.037c-0.017,0.304-0.052,0.521-0.095,0.717
			c-3.711-1.956-5.478-4.496-5.478-8.158c0-1.226,0.256-2.625,0.636-4.12c2.221,2.441,4.949,7.38,4.949,11.149
			C100.658,139.763,100.654,139.9,100.646,140.037z M112.208,105.854c0.511,0.03,1.024,0.128,1.531,0.298
			C113.241,105.999,112.733,105.88,112.208,105.854z M162.618,115.043c0,0.334-0.025,0.675-0.078,1.019
			c-0.183,1.17-0.743,2.222-1.477,3.196c-0.932-2.925-1.802-5.853-2.632-8.799c0.991,0,1.835,0.232,2.482,0.705
			C161.995,111.953,162.618,113.412,162.618,115.043z"/>
		<path i:knockout="Off" d="M245.922,126.436l-11.83-1.779c-3.264-0.491-6.359,1.603-7.119,4.815
			c-0.563,2.381-0.916,5.107-0.991,7.953c-0.577-0.14-1.177-0.216-1.792-0.188c-3.196,0.148-6.43-0.095-9.85-0.353
			c-3.605-0.271-7.303-0.543-11.176-0.379c-0.081-1.675-0.814-3.262-2.071-4.399c-1.428-1.292-3.365-1.866-5.266-1.56l-23.897,3.843
			c-1.62-1.563-4.008-2.193-6.271-1.498l-25.828,7.942c-0.633,0.194-1.223,0.489-1.755,0.86c-1.229-0.268-2.519-0.169-3.705,0.306
			l-9.938,3.975c-0.39,0.156-0.753,0.351-1.095,0.572c-0.437-0.036-0.88-0.041-1.332,0.018c-6.803,0.879-10.447,3.862-12.401,6.63
			c-3.793-1.251-8.07-1.059-12.782,0.646c-1.647,0.596-2.895,1.854-3.586,3.393c-1.602-2.376-4.429-3.504-7.186-2.452l-2.438,0.931
			c-2.102,0.858-2.987,1.161-3.95,0.92c-2.569-0.643-5.267,0.378-6.768,2.561c-1.501,2.182-1.49,5.066,0.029,7.235
			c3.244,4.633,5.805,9.524,8.518,14.702c2.778,5.305,5.652,10.79,9.361,16.089c1.611,2.303,4.544,3.27,7.209,2.381
			c2.001-0.669,4.285-0.669,6.93-0.669c2.792,0,5.128-1.86,5.957-4.454c1.641,1.336,3.864,1.857,5.983,1.149
			c1.017-0.339,2.17-0.531,3.505-0.754c1.627-0.271,3.472-0.578,5.434-1.233c2.776-0.926,4.559-3.63,4.316-6.547
			c-0.113-1.355-0.177-2.697-0.219-4.036c0.207,0.908,0.399,1.814,0.564,2.718c0.314,1.727,1.328,3.246,2.802,4.197
			c1.474,0.952,3.276,1.25,4.978,0.826c2.667-0.666,4.667-1.665,6.274-2.469c1.318-0.657,2.359-1.178,3.672-1.506
			c1.236-0.31,2.297-0.968,3.108-1.842c0.307-0.033,0.614-0.078,0.92-0.157l23.084-5.984c1.199,0.617,2.589,0.87,3.999,0.621
			c6.415-1.136,12.883-2.176,19.315-3.152c1.359,1.233,3.215,1.868,5.127,1.604c4.173-0.578,8.405-0.259,12.887,0.077
			c3.651,0.274,7.427,0.559,11.397,0.374c0.786-0.036,1.536-0.282,2.229-0.654c5.914,2.841,10.71,2.939,14.251,0.276
			c5.576-4.192,4.1-12.272,3.614-14.929c-0.213-1.167-0.753-2.223-1.518-3.08c0.6-0.862,0.987-1.867,1.104-2.934
			c0.411-3.783,1.05-7.499,1.727-11.434c0.679-3.951,1.382-8.036,1.834-12.211C251.654,130.013,249.288,126.942,245.922,126.436z
			 M228.767,158.954c0.668-1.369,1.2-2.732,1.629-4.079c0.532,0.682,1.084,1.326,1.658,1.938
			C230.909,157.36,229.798,158.055,228.767,158.954z"/>
	</g>
	<g id="text" i:layer="yes" i:dimmedPercent="50" i:rgbTrio="#FFFF4F004F00">
		<path i:knockout="Off" fill="#FFBB11" d="M76.88,113.773l-4.966,0.993c-0.593,0.119-1.021,0.639-1.021,1.244c0,0,0,5.317,0,9.983
			c-1.029-2.466-2.374-4.447-4.042-5.961c-2.958-2.686-6.896-3.794-11.705-3.297c-0.612,0.063-1.09,0.556-1.135,1.169
			c0,0-0.413,5.575-0.794,10.719c-1.091-4.173-2.815-7.169-5.234-8.959c-3.05-2.255-7.083-2.552-11.987-0.88
			c-0.334,0.114-0.606,0.362-0.75,0.686c-0.144,0.323-0.146,0.691-0.006,1.016l14.899,34.754c0.138,0.321,0.402,0.57,0.73,0.691
			c0.328,0.12,0.691,0.101,1.004-0.058c1.718-0.858,3.502-0.858,5.391-0.858c0.646,0,1.19-0.487,1.262-1.13
			c0.385-3.464,0.593-6.747,0.739-10.009c1.273,3.689,3.071,6.39,5.443,8.082c3.305,2.36,7.617,2.7,12.814,1.011
			c0.523-0.169,0.877-0.657,0.877-1.207v-36.744c0-0.38-0.17-0.741-0.464-0.982C77.64,113.795,77.253,113.699,76.88,113.773z
			 M176.124,108.396c-1.839-7.791-12.638-14.375-32.618-11.521c-0.342,0.049-0.649,0.234-0.851,0.515
			c-0.202,0.28-0.281,0.63-0.219,0.969c1.337,7.352,3.591,14.791,5.771,21.984l3.193,10.901c0.097,0.331,0.327,0.619,0.633,0.779
			c0.306,0.16,0.666,0.199,0.993,0.091C172.663,125.569,177.742,115.247,176.124,108.396z M167.555,111.777
			c-0.729,4.682-4.062,8.443-9.177,10.508c-2.332-6.72-4.415-13.567-6.204-20.411c4.599-2.033,8.75-2.059,11.734,0.122
			c2.417,1.765,3.79,4.71,3.79,7.957C167.698,110.552,167.651,111.163,167.555,111.777z M138.522,120.239
			c4.333-3.067,6.524-5.667,6.524-7.984c0-0.412-0.065-0.815-0.196-1.211c-1.48-4.498-11.924-6.217-31.929-5.257
			c0,0-0.766,0.033-0.966,0.042c-0.083-0.005-0.159-0.025-0.242-0.013c-1.127,0.161-1.218,1.04-1.218,1.319
			c0,0.047,0.002,0.076,0.003,0.083c0.01,0.109,0.051,0.175,0.074,0.265c-0.48,4.185-0.786,8-0.91,11.441
			c-2.037-3.255-4.725-5.988-7.813-7.636c-5.184-2.766-10.717-2.146-15.581,1.746c-0.037,0.029-0.071,0.06-0.104,0.094
			c-6.992,6.992-4.533,25.124,2.34,33.052c4.056,4.679,9.165,5.301,14.044,1.747c4.924-1.695,8.35-4.925,9.997-9.3
			c0.822,1.463,1.813,2.599,2.981,3.395c3.183,2.168,7.509,1.813,12.858-1.055c0.327-0.175,0.56-0.484,0.64-0.845
			c0.02-0.09,0.03-0.182,0.03-0.273c0-0.272-0.087-0.54-0.254-0.762c-1.316-1.755-1.771-4.03-2.253-6.438
			c-0.379-1.895-0.775-3.834-1.613-5.61c2.025-0.293,4.049-1.032,6.055-2.159c1.54,5.783,3.789,9.371,6.928,10.697
			c2.681,1.132,5.849,0.594,9.416-1.599c0.306-0.188,0.518-0.498,0.584-0.852c0.014-0.076,0.021-0.152,0.021-0.229
			c0-0.278-0.092-0.551-0.264-0.774C147.673,132.122,139.679,121.741,138.522,120.239z M100.995,141.458
			c-7.329-2.883-10.98-7.461-10.98-13.914c0-2.178,0.414-4.568,1.236-7.177c1.232-3.695,3.008-3.458,3.592-3.38
			c4.13,0.551,10.448,9.378,10.87,16.887c0.015,0.258,0.022,0.512,0.022,0.758C105.735,138.27,104.116,140.538,100.995,141.458z
			 M132.262,114.574c-0.966,3.026-4.5,4.883-9.505,5.093c-0.436-1.454-2.208-7.366-2.425-8.09c4.138-2.874,7.984-3.624,10.387-1.915
			c1.145,0.814,1.774,2.088,1.774,3.464C132.493,113.602,132.417,114.089,132.262,114.574z"/>
		<path i:knockout="Off" fill="#FFBB11" d="M246.333,126.524l-11.826-1.778c-0.653-0.098-1.272,0.32-1.425,0.962
			c-2.329,9.833-0.425,24.674,9.21,26.955c0.354,0.084,0.729,0.011,1.025-0.199s0.489-0.537,0.528-0.899
			c0.429-3.938,1.11-7.904,1.77-11.742c0.665-3.877,1.354-7.886,1.791-11.907C247.48,127.239,247.007,126.625,246.333,126.524z
			 M124.899,167.628c0.16-6.454,0.326-13.125-0.829-20.046c-0.112-0.674-0.737-1.137-1.414-1.051
			c-4.648,0.601-7.822,2.4-9.434,5.353c-0.578,1.058-0.877,2.292-1.044,3.612c-0.666-0.643-1.364-1.22-2.131-1.668
			c-3.114-1.82-6.983-1.916-11.499-0.283c-0.479,0.174-0.809,0.618-0.835,1.127c0,0-0.621,11.784-0.783,14.867
			c-2.923-4.802-5.373-9.642-7.73-14.355c-0.292-0.584-0.936-0.89-1.545-0.657l-2.122,0.813c-2.281,0.932-4.435,1.812-7.103,1.145
			c-0.514-0.129-1.053,0.075-1.354,0.512c-0.3,0.437-0.298,1.014,0.006,1.447c3.43,4.899,6.188,10.164,8.855,15.256
			c2.704,5.163,5.501,10.502,9.024,15.534c0.322,0.461,0.908,0.654,1.44,0.477c2.784-0.928,5.58-0.928,8.539-0.928
			c0.621,0,1.15-0.448,1.252-1.061c0.613-3.681,1.164-7.474,1.164-11.173c0-0.919-0.101-1.82-0.177-2.724
			c2.268,3.299,4.353,6.866,6.557,11.274c0.283,0.565,0.938,0.836,1.537,0.638c1.394-0.465,2.793-0.699,4.275-0.945
			c1.514-0.252,3.08-0.514,4.665-1.042c0.556-0.186,0.912-0.727,0.863-1.309C124.656,177.396,124.779,172.429,124.899,167.628z
			 M137.243,141.668c-0.313-0.14-0.67-0.147-0.989-0.02l-9.932,3.971c-0.599,0.239-0.923,0.89-0.753,1.513
			c1.202,4.403,2.742,8.862,4.232,13.173c2.213,6.403,4.5,13.025,5.675,19.489c0.063,0.345,0.266,0.647,0.561,0.839
			c0.294,0.19,0.655,0.25,0.996,0.164c2.125-0.53,3.704-1.319,5.232-2.082c1.47-0.734,2.858-1.428,4.71-1.892
			c0.649-0.161,1.062-0.8,0.941-1.458c-2.011-11.051-6.072-22.195-9.999-32.974C137.8,142.07,137.556,141.809,137.243,141.668z
			 M229.143,164.655l-0.478-3.438c-0.081-0.587-0.538-0.933-1.129-0.984c0,0-9.106-0.785-9.551-0.824
			c6.215-3.885,9.374-8.639,9.374-14.222c0-1.913-0.366-3.921-1.101-6.024c-0.185-0.53-0.696-0.875-1.257-0.85
			c-3.505,0.163-7.046-0.104-10.467-0.36c-4.685-0.352-9.527-0.716-14.507-0.027c-0.597,0.083-1.052,0.573-1.093,1.173
			c-0.254,3.855,0.659,6.606,2.716,8.175c1.819,1.391,4.455,1.733,7.887,1.146c-2.228,2.612-4.484,6.123-5.982,9.632
			c-0.083-0.396-0.177-0.805-0.293-1.24c-0.136-0.508-0.57-0.878-1.092-0.934c-3.822-0.405-7.663-0.179-11.466,0.52
			c4.909-8.708,7.073-14.024,7.67-24.163c0.001-0.025,0.002-0.05,0.002-0.075c0-0.357-0.15-0.7-0.417-0.941
			c-0.287-0.258-0.674-0.373-1.055-0.312l-24.937,4.013c-0.599,0.097-1.046,0.603-1.066,1.208c-0.153,4.296,0.9,7.192,3.132,8.605
			c1.84,1.164,4.352,1.247,7.585,0.271c-3.2,4.024-5.09,8.214-5.682,12.545c-0.254-0.102-0.535-0.14-0.815-0.059
			c0,0-6.172,1.763-10.169,2.904c4.062-5.442,6.22-10.941,6.22-16.456c0-3.528-0.833-7.063-2.501-10.59
			c-0.27-0.57-0.918-0.856-1.521-0.67l-25.827,7.942c-0.357,0.11-0.647,0.371-0.794,0.714c-0.146,0.343-0.135,0.734,0.032,1.068
			c2.298,4.591,3.383,6.056,4.838,6.533c1.258,0.413,2.337-0.137,3.585-0.775c1.262-0.644,2.884-1.455,5.448-1.844
			c-5.123,5.801-7.695,11.635-7.695,17.446c0,3.493,0.928,6.979,2.786,10.445c0.276,0.516,0.87,0.774,1.437,0.628l26.045-6.752
			c0.1,0.302,0.181,0.603,0.291,0.906c0.212,0.578,0.808,0.92,1.413,0.813c7.666-1.358,15.434-2.604,23.126-3.734
			c0.062,0.725,0.21,1.405,0.458,2.026c0.216,0.541,0.773,0.866,1.352,0.786c4.707-0.65,9.412-0.298,13.962,0.045
			c3.5,0.264,7.118,0.535,10.779,0.365c0.356-0.017,0.679-0.236,0.906-0.511c0.189-0.227,0.285-0.548,0.285-0.852
			c0-0.063-0.004-0.126-0.013-0.187L229.143,164.655z M243.127,158.002c-4.924-1.927-8.246-2.016-10.156-0.274
			c-1.842,1.679-2.083,4.766-0.736,9.438c0.099,0.341,0.336,0.625,0.654,0.783c4.306,2.145,7.365,2.46,9.354,0.963
			c2.065-1.552,2.611-4.81,1.67-9.957C243.834,158.522,243.537,158.161,243.127,158.002z"/>
	</g>
</svg>
